<svg id="Warstwa_1" data-name="Warstwa 1" xmlns="http://www.w3.org/2000/svg" viewBox="0 0 500 500"><defs><style>.cls-1{fill:#546e7a;}.cls-1,.cls-7{stroke:#fff;}.cls-1,.cls-2,.cls-7{stroke-miterlimit:10;}.cls-2{fill:#fff;stroke:#efebe9;}.cls-3{fill:#7cb342;}.cls-4{fill:#cfd8dc;}.cls-5{fill:#e6ee9c;}.cls-6{fill:#3e2723;}.cls-7{fill:#aa7455;}</style></defs><title>Obszar roboczy 1</title><path class="cls-1" d="M471.54,198c0-13.73-4.55-25.39-14-35a125.38,125.38,0,0,0-18.21-15.4c-18.18-12.49-38.63-20.11-59.67-26.25-2.94-.86-13.05-4.8-35.87-8.57s-39.22-6.56-71-7.67-47.12.18-70.57,1.78c-36.5,2.49-72.28,9.33-106.57,22.61-19.23,7.45-37.5,16.67-52.16,31.69-9.48,9.71-15.49,21-15.48,35q.08,92,0,184.06c0,11.32,3.38,21.51,10.82,29.85a126.69,126.69,0,0,0,18.75,17.31c14.45,10.74,30.94,17.69,47.91,23.36,50.34,16.79,102.3,21.88,155,21,46.58-.81,92.41-6.59,136.6-22.08,21.81-7.65,42.59-17.34,59.1-34.23,9.82-10,15.36-21.8,15.32-36.21Q471.31,288.58,471.54,198Z"/><path class="cls-2" d="M328,152.58c30.06,5.09,59.42,12.56,86.47,27.19,11.09,6,21.37,13.14,29,23.45,7.38,10,7.23,11.92-2.1,19.93-14.94,12.82-32.64,20.58-51,27-28.23,9.94-57.48,15.16-87.15,18.2a537.69,537.69,0,0,1-105.16.24c-27.6-2.59-55-7.19-81.38-15.79-14-4.55-27.36-11-40.63-17.39-6.41-3.08-12.26-7.61-17.81-12.16-9.62-7.89-9.69-10.16-2.07-20.31,7.82-10.4,18.3-17.56,29.59-23.61,25.38-13.61,52.76-21.24,81-25.92,18.09-3,77.26-7.45,93.48-6.81,13,.45,24.55,0,40.66,1.69"/><path class="cls-3" d="M81.54,254c57.08,25.67,117.58,31.34,179.13,30.68,40-.43,79.56-5,118.09-16.22a335.25,335.25,0,0,0,34.73-12.36c15.88-6.57,30.42-15.48,43.39-28.37,1.87,9.4-1.33,16.7-7.61,21.51-9.71,7.42-19.81,14.84-30.82,20-33.59,15.6-69.64,22.29-106.19,26.15-56,5.92-111.86,4.46-167.25-6.41-23.67-4.65-47.09-10.64-68.61-21.87-9.31-4.86-18-11.2-26.21-17.81-6.08-4.9-9.3-11.93-7.75-21.07,1.49,1.26,2.69,2.2,3.81,3.22A132.26,132.26,0,0,0,81.54,254Z"/><path class="cls-4" d="M46.71,180.2c6.18-7.74,13.18-15.33,21.26-20.95,22.13-15.4,47.61-23.15,73.6-29.19,37.37-8.69,95.78-11.57,113.61-11.31s13.37-.37,35.6,1.44,26.15,2.68,39.22,4c4.76.3,27.7,5.8,28,5.87,25.41,5.91,50.25,13.56,72.17,28.14,7.62,5.06,14.34,11.75,20.57,18.52,4.89,5.31,7.47,12.18,6.3,20.86-19.7-25.54-46.72-37.26-75.11-46.47-12.84-4.17-52.59-12.48-67.26-14.81a403,403,0,0,0-42.83-4c-9.84-.36-36.2.58-38.74.63-45,.85-89.3,7.22-131.46,23.91a196.87,196.87,0,0,0-34.3,17.63c-9.09,5.88-16.72,14-26.66,22.62C42.83,190.72,43.39,184.35,46.71,180.2Z"/><path class="cls-5" d="M41.91,338.66c.59-23.35.15-46.72.15-70.08,0-2,0-4,0-5.94,8.72,5.3,16.81,10.85,25.45,15.33,27.41,14.19,57,21.68,87.19,26.91,51,8.83,102.27,9.51,153.72,4.81a452,452,0,0,0,105.22-22.8c16.16-5.51,29.14-15.4,43.8-24.91,0,2.65,0,4.71,0,6.76,0,23.93-.27,47.87.11,71.79.21,13.19-4.17,24.45-13.27,33.42a147.55,147.55,0,0,1-22.19,17.51c-27,17.86-57.59,26-88.88,31.55a472.2,472.2,0,0,1-144,3.53c-28.45-3.68-56.51-9.34-83.27-20.21-17.52-7.11-33.89-16.17-47.76-29.14C47.13,366.89,41.51,354.28,41.91,338.66Z"/><path class="cls-3" d="M453,396.63c-5.22,9.59-13.67,16.17-22.69,21.94-19.08,12.2-40.14,19.71-61.9,25.31C314.14,457.87,259,460.52,203.35,456c-36.46-3-72.23-9.55-106.36-23.29-15.21-6.12-29.7-13.55-41.75-25-8.86-8.41-13.05-16.87-12.81-26.26,31.62,32.59,71.89,45.65,114,53.79,72.81,14.07,145.38,12.59,217.12-7.33,22.4-6.22,43.86-14.93,62.89-28.6,7.17-5.16,13.64-11.3,21.73-16.78C456.48,387.23,455.37,392.28,453,396.63Z"/><path d="M104.64,372.62a5.56,5.56,0,0,1-2.43-2.06,120,120,0,0,0-24.92-26.13l.27,7,.17,7a2.31,2.31,0,0,1-1,2.14,2.41,2.41,0,0,1-2.39-.09A5.75,5.75,0,0,1,72,358.31a5.63,5.63,0,0,1-.95-3q0-2.78-.25-8.4t-.25-8.4a92,92,0,0,1,.67-9.31,92.07,92.07,0,0,0,.67-9.27q0-1.79-.32-5.46T71.25,309a4,4,0,0,1,1.07-3c.84-.81,2-.83,3.51,0,3.22,1.79,4.84,2.67,8.09,4.38a39.13,39.13,0,0,1,7.81,5.74c6,6.68,13.75,14.26,13.82,24a7.84,7.84,0,0,1-4.72,7.63,17.09,17.09,0,0,1-9.43,1.18c7,6.89,12.34,13,15.87,18.69a5.28,5.28,0,0,1,.89,2.72,2.43,2.43,0,0,1-1,2.18A2.56,2.56,0,0,1,104.64,372.62ZM83,317.17c-2-1.06-3-1.6-5-2.69l.34,4.41q.23,2.71.23,4.36a64,64,0,0,1-.44,6.79l-.7,6.67,1.46.71,1.49.72c5.71,2.61,10,3.64,12.9,3.24A8.61,8.61,0,0,0,96.85,340a3.36,3.36,0,0,0,1.81-2.61c0-3.26-1.8-7-5.38-11.3A37.44,37.44,0,0,0,83,317.17Z"/><path d="M142.16,386.85a7.61,7.61,0,0,1-2.42-2.22,22.38,22.38,0,0,1-2.35-3.23,32.18,32.18,0,0,1-5.91,1,11.85,11.85,0,0,1-4.25-.39c-5.43-1.72-9.36-4.63-11.82-8.58-2.32-3.72-3.48-8.6-3.48-14.6,0-5.67,1.91-9.82,5.75-12.53s8.44-3.21,13.81-1.57a25.06,25.06,0,0,1,6.82,3.59c3.17,2.22,4.77,4.23,4.77,6.08a2.79,2.79,0,0,1-.7,1.5c-.33.49-.42,2.24-.54,4.24s-.2,4.6-.23,7.78a32.21,32.21,0,0,0,.6,7.06,70.32,70.32,0,0,0,2.21,6.79q.25.7.81,2.08l.21.65a2.29,2.29,0,0,1-1,2.06A2.68,2.68,0,0,1,142.16,386.85Zm-7.29-26.51a29.14,29.14,0,0,1,.19-3.23q.19-1.72.58-3.61a26.13,26.13,0,0,0-2.22-1.64,6.53,6.53,0,0,0-1.48-.76c-3.61-1.09-6.71-.6-9.31,1.5s-3.9,5.07-3.9,8.94a18.87,18.87,0,0,0,2,9.33,10.25,10.25,0,0,0,6,4.85,11,11,0,0,0,5.68.53,13.86,13.86,0,0,0,3.53-1.62A137,137,0,0,1,134.88,360.34Z"/><path d="M184.27,362.7q-.43,5.09-.43,10.27A108.14,108.14,0,0,0,185,390.83a6.1,6.1,0,0,1,.07.82,2.53,2.53,0,0,1-1,2.16,2.9,2.9,0,0,1-2.32.52q-2.21-.38-3.25-3.73a15.69,15.69,0,0,1-11.07,1.62,20.61,20.61,0,0,1-12.15-7.57,21.72,21.72,0,0,1-4.94-13.94c0-6.26,1.66-10.84,5-13.82s7.67-3.86,13-2.76a15.91,15.91,0,0,1,6.37,2.52l3.35,3c.33-9.81.7-16.41,1.18-19.72.29-2,1.39-2.88,3.25-2.57a3.56,3.56,0,0,1,3.25,3.95C185.7,344.61,185.21,351.74,184.27,362.7Zm-15.82-2c-4-.82-7-.32-8.94,1.56s-3,5.15-3,9.84a13.39,13.39,0,0,0,3.24,8.56,13.15,13.15,0,0,0,7.61,4.93,9.74,9.74,0,0,0,5-.07,20.46,20.46,0,0,0,4-2.17,5.8,5.8,0,0,0,1-.9l-.11-6.1,0-4.07.07-4.14a13.06,13.06,0,0,0-3.6-4.94A12.09,12.09,0,0,0,168.45,360.7Z"/><path d="M240.08,401.94a3.33,3.33,0,0,1-3.46-3.16q-.64-3.89-1.3-10.95l-1.23-10.95a23.49,23.49,0,0,0-1.23-4.8c-.8-2.14-1.71-3.24-2.67-3.29s-2.56.64-5,1.94-4.29,2.35-4.54,3c-.52,1.3,0,4.41.18,6.62l1.08,9.46a79,79,0,0,1,.68,9.22,3.24,3.24,0,0,1-1,2.48,3.18,3.18,0,0,1-2.54.81,3.69,3.69,0,0,1-2.54-1.21,3.76,3.76,0,0,1-1-2.63q0-4.25-.88-12.65t-.88-12.65a13.42,13.42,0,0,0-1.08-5.9,16.06,16.06,0,0,0-5.11,3.15l-4.24,4.17a17.67,17.67,0,0,1-1.83,2q0,2.11-.39,6.17t-.39,6a18.57,18.57,0,0,0,.34,3,18.42,18.42,0,0,1,.34,2.78,2.75,2.75,0,0,1-1.09,2.29,3.32,3.32,0,0,1-2.57.66c-2.7-.35-4.05-3.56-4.05-9.58q0-2.11.39-6.24t.39-6.24q0-1.86-.34-5.64t-.34-5.67c0-5.32,1.22-7.8,3.66-7.48A4.12,4.12,0,0,1,200,358.2a4.17,4.17,0,0,1,1.17,2.75A17.65,17.65,0,0,1,201,363a17.72,17.72,0,0,0-.18,2.12l.07,3.7a18.11,18.11,0,0,1,5.5-6.17c2.42-1.76,4.48-2.58,6.19-2.42,3.77.35,6.36,2.37,7.78,6.14a11.76,11.76,0,0,1,4.72-3.53,14.7,14.7,0,0,1,6.27-.94c4,.19,6.76,2.37,8.23,6.63.29.85.67,4.3,1.48,9.92.57,4,1.54,10.78,2.6,20.2a2.75,2.75,0,0,1-1,2.37A3.67,3.67,0,0,1,240.08,401.94Z"/><path d="M281.1,377.5q0,2.53,0,7.59t0,7.59q0,.77.13,2.35t.13,2.35a3.47,3.47,0,0,1-1,2.56,3.87,3.87,0,0,1-2.56,1.14c-1.85.12-3-.92-3.53-3.12a22.27,22.27,0,0,1-10.39,2.75,13.39,13.39,0,0,1-7.83-1.86,9,9,0,0,1-4.08-6.54,112.7,112.7,0,0,1-1.41-16.59,66.52,66.52,0,0,1,1.08-11,3.24,3.24,0,0,1,3.43-3.08,3.66,3.66,0,0,1,2.6.93,3.17,3.17,0,0,1,1,2.46,40.24,40.24,0,0,1-.52,5.18,40.47,40.47,0,0,0-.52,5.42q0,5.87.4,10a33.48,33.48,0,0,0,1.19,6.69,11.74,11.74,0,0,0,2.35.91,7.9,7.9,0,0,0,2.27.27,35.42,35.42,0,0,0,10.21-2l0-7.13-.07-6.82a111.08,111.08,0,0,1,.68-13.22,3.77,3.77,0,0,1,6.09-2.65,2.81,2.81,0,0,1,1,2.39Z"/><path d="M318,367.62c-.17,3-1.36,4.62-3.57,5-2.05.32-3.08-.69-3.08-3q0-.67-.11-2.44l-.11-2.94a23.1,23.1,0,0,0-9.07,4.38,20.28,20.28,0,0,0-5.31,7.53l.07,19.26a3.55,3.55,0,0,1-3.56,3.94c-2.11.22-3.16-.87-3.16-3.23V371.39q0-1.16.09-3.49t.09-3.49c0-2.37,1.06-3.65,3.16-3.87,2.35-.25,3.53,1.56,3.56,5.45,4.6-4.86,9.69-7.69,15.28-8.53a4.19,4.19,0,0,1,4.33,1.46q1.43,1.91,1.43,6.23Q318,367,318,367.62Z"/><path d="M357.91,353.83q-.43,5.28-.42,10.45,0,11.71,1.09,17.39a5.56,5.56,0,0,1,.07.79,4,4,0,0,1-1,2.59,4.44,4.44,0,0,1-2.29,1.53q-2.18.58-3.2-2.33a27,27,0,0,1-5.27,4.12,19.88,19.88,0,0,1-5.71,2.29c-4.89,1.11-9,.31-12.18-2.29s-5-6.61-5-11.79a25.67,25.67,0,0,1,5-16,22.05,22.05,0,0,1,13-8.43c2.74-.63,4.84-.72,6.33-.24l3.32,1.6c.33-10,.69-16.72,1.16-20.23a4.28,4.28,0,0,1,3.2-4c2.13-.57,3.2.27,3.2,2.54C359.32,335.12,358.83,342.46,357.91,353.83Zm-15.66,4.83a14.53,14.53,0,0,0-8.94,5.44c-2,2.74-3,6.45-3,11.13a8.66,8.66,0,0,0,3.25,7.15,8.56,8.56,0,0,0,7.61,1.62,12.7,12.7,0,0,0,5-2.26,37.29,37.29,0,0,0,3.92-3.88,11,11,0,0,0,1-1.35l-.11-6.06,0-4.09.07-4.17a7,7,0,0,0-3.56-3.39A8.94,8.94,0,0,0,342.25,358.66Z"/><path d="M396,352q0,2.53,0,7.58t0,7.58q0,.77.12,2.31t.12,2.31a4.72,4.72,0,0,1-1,2.86,5.3,5.3,0,0,1-2.44,1.88c-1.77.65-2.89-.05-3.37-2.11a28.12,28.12,0,0,1-10,5.73c-3,1-5.55,1.12-7.55.38-2.21-.81-3.52-2.62-3.94-5.37a108.32,108.32,0,0,1-1.36-16.19,74.39,74.39,0,0,1,1-11.28,4.62,4.62,0,0,1,3.32-4.06,2.9,2.9,0,0,1,2.51.19,2.37,2.37,0,0,1,1,2.16,45.33,45.33,0,0,1-.5,5.33,45.34,45.34,0,0,0-.5,5.57q0,5.87.38,9.93a29.68,29.68,0,0,0,1.15,6.35,9,9,0,0,0,2.26.24,7.5,7.5,0,0,0,2.19-.38,42.53,42.53,0,0,0,9.78-4.9l0-7.12-.07-6.8a121.6,121.6,0,0,1,.65-13.42,5,5,0,0,1,3.34-4.46,2.75,2.75,0,0,1,2.47.06,2.14,2.14,0,0,1,.93,2.11Z"/><path d="M430.76,331.45c-.16,3-1.26,5-3.33,6-1.91.92-2.87.2-2.87-2.12q0-.67-.1-2.41l-.1-2.91a32.42,32.42,0,0,0-8.5,7,30.48,30.48,0,0,0-5,9.06c0,7.69,0,11.54.07,19.24a5,5,0,0,1-3.36,5c-2,.83-3,0-3-2.32,0-9.87,0-14.81,0-24.68q0-1.16.09-3.52t.09-3.52a4.7,4.7,0,0,1,3-4.78c2.22-.92,3.34.54,3.36,4.42,4.34-6.18,9.12-10.48,14.34-12.94,1.81-.85,3.15-.79,4,.21s1.33,2.94,1.33,5.82Q430.79,330.8,430.76,331.45Z"/><path class="cls-6" d="M104.64,372.62a5.56,5.56,0,0,1-2.43-2.06,120,120,0,0,0-24.92-26.13l.27,7,.17,7a2.31,2.31,0,0,1-1,2.14,2.41,2.41,0,0,1-2.39-.09A5.75,5.75,0,0,1,72,358.31a5.63,5.63,0,0,1-.95-3q0-2.78-.25-8.4t-.25-8.4a92,92,0,0,1,.67-9.31,92.07,92.07,0,0,0,.67-9.27q0-1.79-.32-5.46T71.25,309a4,4,0,0,1,1.07-3c.84-.81,2-.83,3.51,0,3.22,1.79,4.84,2.67,8.09,4.38a39.13,39.13,0,0,1,7.81,5.74c6,6.68,13.75,14.26,13.82,24a7.84,7.84,0,0,1-4.72,7.63,17.09,17.09,0,0,1-9.43,1.18c7,6.89,12.34,13,15.87,18.69a5.28,5.28,0,0,1,.89,2.72,2.43,2.43,0,0,1-1,2.18A2.56,2.56,0,0,1,104.64,372.62ZM83,317.17c-2-1.06-3-1.6-5-2.69l.34,4.41q.23,2.71.23,4.36a64,64,0,0,1-.44,6.79l-.7,6.67,1.46.71,1.49.72c5.71,2.61,10,3.64,12.9,3.24A8.61,8.61,0,0,0,96.85,340a3.36,3.36,0,0,0,1.81-2.61c0-3.26-1.8-7-5.38-11.3A37.44,37.44,0,0,0,83,317.17Z"/><path class="cls-6" d="M142.16,386.85a7.61,7.61,0,0,1-2.42-2.22,22.38,22.38,0,0,1-2.35-3.23,32.18,32.18,0,0,1-5.91,1,11.85,11.85,0,0,1-4.25-.39c-5.43-1.72-9.36-4.63-11.82-8.58-2.32-3.72-3.48-8.6-3.48-14.6,0-5.67,1.91-9.82,5.75-12.53s8.44-3.21,13.81-1.57a25.06,25.06,0,0,1,6.82,3.59c3.17,2.22,4.77,4.23,4.77,6.08a2.79,2.79,0,0,1-.7,1.5c-.33.49-.42,2.24-.54,4.24s-.2,4.6-.23,7.78a32.21,32.21,0,0,0,.6,7.06,70.32,70.32,0,0,0,2.21,6.79q.25.7.81,2.08l.21.65a2.29,2.29,0,0,1-1,2.06A2.68,2.68,0,0,1,142.16,386.85Zm-7.29-26.51a29.14,29.14,0,0,1,.19-3.23q.19-1.72.58-3.61a26.13,26.13,0,0,0-2.22-1.64,6.53,6.53,0,0,0-1.48-.76c-3.61-1.09-6.71-.6-9.31,1.5s-3.9,5.07-3.9,8.94a18.87,18.87,0,0,0,2,9.33,10.25,10.25,0,0,0,6,4.85,11,11,0,0,0,5.68.53,13.86,13.86,0,0,0,3.53-1.62A137,137,0,0,1,134.88,360.34Z"/><path class="cls-6" d="M184.27,362.7q-.43,5.09-.43,10.27A108.14,108.14,0,0,0,185,390.83a6.1,6.1,0,0,1,.07.82,2.53,2.53,0,0,1-1,2.16,2.9,2.9,0,0,1-2.32.52q-2.21-.38-3.25-3.73a15.69,15.69,0,0,1-11.07,1.62,20.61,20.61,0,0,1-12.15-7.57,21.72,21.72,0,0,1-4.94-13.94c0-6.26,1.66-10.84,5-13.82s7.67-3.86,13-2.76a15.91,15.91,0,0,1,6.37,2.52l3.35,3c.33-9.81.7-16.41,1.18-19.72.29-2,1.39-2.88,3.25-2.57a3.56,3.56,0,0,1,3.25,3.95C185.7,344.61,185.21,351.74,184.27,362.7Zm-15.82-2c-4-.82-7-.32-8.94,1.56s-3,5.15-3,9.84a13.39,13.39,0,0,0,3.24,8.56,13.15,13.15,0,0,0,7.61,4.93,9.74,9.74,0,0,0,5-.07,20.46,20.46,0,0,0,4-2.17,5.8,5.8,0,0,0,1-.9l-.11-6.1,0-4.07.07-4.14a13.06,13.06,0,0,0-3.6-4.94A12.09,12.09,0,0,0,168.45,360.7Z"/><path class="cls-6" d="M240.08,401.94a3.33,3.33,0,0,1-3.46-3.16q-.64-3.89-1.3-10.95l-1.23-10.95a23.49,23.49,0,0,0-1.23-4.8c-.8-2.14-1.71-3.24-2.67-3.29s-2.56.64-5,1.94-4.29,2.35-4.54,3c-.52,1.3,0,4.41.18,6.62l1.08,9.46a79,79,0,0,1,.68,9.22,3.24,3.24,0,0,1-1,2.48,3.18,3.18,0,0,1-2.54.81,3.69,3.69,0,0,1-2.54-1.21,3.76,3.76,0,0,1-1-2.63q0-4.25-.88-12.65t-.88-12.65a13.42,13.42,0,0,0-1.08-5.9,16.06,16.06,0,0,0-5.11,3.15l-4.24,4.17a17.67,17.67,0,0,1-1.83,2q0,2.11-.39,6.17t-.39,6a18.57,18.57,0,0,0,.34,3,18.42,18.42,0,0,1,.34,2.78,2.75,2.75,0,0,1-1.09,2.29,3.32,3.32,0,0,1-2.57.66c-2.7-.35-4.05-3.56-4.05-9.58q0-2.11.39-6.24t.39-6.24q0-1.86-.34-5.64t-.34-5.67c0-5.32,1.22-7.8,3.66-7.48A4.12,4.12,0,0,1,200,358.2a4.17,4.17,0,0,1,1.17,2.75A17.65,17.65,0,0,1,201,363a17.72,17.72,0,0,0-.18,2.12l.07,3.7a18.11,18.11,0,0,1,5.5-6.17c2.42-1.76,4.48-2.58,6.19-2.42,3.77.35,6.36,2.37,7.78,6.14a11.76,11.76,0,0,1,4.72-3.53,14.7,14.7,0,0,1,6.27-.94c4,.19,6.76,2.37,8.23,6.63.29.85.67,4.3,1.48,9.92.57,4,1.54,10.78,2.6,20.2a2.75,2.75,0,0,1-1,2.37A3.67,3.67,0,0,1,240.08,401.94Z"/><path class="cls-6" d="M281.1,377.5q0,2.53,0,7.59t0,7.59q0,.77.13,2.35t.13,2.35a3.47,3.47,0,0,1-1,2.56,3.87,3.87,0,0,1-2.56,1.14c-1.85.12-3-.92-3.53-3.12a22.27,22.27,0,0,1-10.39,2.75,13.39,13.39,0,0,1-7.83-1.86,9,9,0,0,1-4.08-6.54,112.7,112.7,0,0,1-1.41-16.59,66.52,66.52,0,0,1,1.08-11,3.24,3.24,0,0,1,3.43-3.08,3.66,3.66,0,0,1,2.6.93,3.17,3.17,0,0,1,1,2.46,40.24,40.24,0,0,1-.52,5.18,40.47,40.47,0,0,0-.52,5.42q0,5.87.4,10a33.48,33.48,0,0,0,1.19,6.69,11.74,11.74,0,0,0,2.35.91,7.9,7.9,0,0,0,2.27.27,35.42,35.42,0,0,0,10.21-2l0-7.13-.07-6.82a111.08,111.08,0,0,1,.68-13.22,3.77,3.77,0,0,1,6.09-2.65,2.81,2.81,0,0,1,1,2.39Z"/><path class="cls-6" d="M318,367.62c-.17,3-1.36,4.62-3.57,5-2.05.32-3.08-.69-3.08-3q0-.67-.11-2.44l-.11-2.94a23.1,23.1,0,0,0-9.07,4.38,20.28,20.28,0,0,0-5.31,7.53l.07,19.26a3.55,3.55,0,0,1-3.56,3.94c-2.11.22-3.16-.87-3.16-3.23V371.39q0-1.16.09-3.49t.09-3.49c0-2.37,1.06-3.65,3.16-3.87,2.35-.25,3.53,1.56,3.56,5.45,4.6-4.86,9.69-7.69,15.28-8.53a4.19,4.19,0,0,1,4.33,1.46q1.43,1.91,1.43,6.23Q318,367,318,367.62Z"/><path class="cls-6" d="M357.91,353.83q-.43,5.28-.42,10.45,0,11.71,1.09,17.39a5.56,5.56,0,0,1,.07.79,4,4,0,0,1-1,2.59,4.44,4.44,0,0,1-2.29,1.53q-2.18.58-3.2-2.33a27,27,0,0,1-5.27,4.12,19.88,19.88,0,0,1-5.71,2.29c-4.89,1.11-9,.31-12.18-2.29s-5-6.61-5-11.79a25.67,25.67,0,0,1,5-16,22.05,22.05,0,0,1,13-8.43c2.74-.63,4.84-.72,6.33-.24l3.32,1.6c.33-10,.69-16.72,1.16-20.23a4.28,4.28,0,0,1,3.2-4c2.13-.57,3.2.27,3.2,2.54C359.32,335.12,358.83,342.46,357.91,353.83Zm-15.66,4.83a14.53,14.53,0,0,0-8.94,5.44c-2,2.74-3,6.45-3,11.13a8.66,8.66,0,0,0,3.25,7.15,8.56,8.56,0,0,0,7.61,1.62,12.7,12.7,0,0,0,5-2.26,37.29,37.29,0,0,0,3.92-3.88,11,11,0,0,0,1-1.35l-.11-6.06,0-4.09.07-4.17a7,7,0,0,0-3.56-3.39A8.94,8.94,0,0,0,342.25,358.66Z"/><path class="cls-6" d="M396,352q0,2.53,0,7.58t0,7.58q0,.77.12,2.31t.12,2.31a4.72,4.72,0,0,1-1,2.86,5.3,5.3,0,0,1-2.44,1.88c-1.77.65-2.89-.05-3.37-2.11a28.12,28.12,0,0,1-10,5.73c-3,1-5.55,1.12-7.55.38-2.21-.81-3.52-2.62-3.94-5.37a108.32,108.32,0,0,1-1.36-16.19,74.39,74.39,0,0,1,1-11.28,4.62,4.62,0,0,1,3.32-4.06,2.9,2.9,0,0,1,2.51.19,2.37,2.37,0,0,1,1,2.16,45.33,45.33,0,0,1-.5,5.33,45.34,45.34,0,0,0-.5,5.57q0,5.87.38,9.93a29.68,29.68,0,0,0,1.15,6.35,9,9,0,0,0,2.26.24,7.5,7.5,0,0,0,2.19-.38,42.53,42.53,0,0,0,9.78-4.9l0-7.12-.07-6.8a121.6,121.6,0,0,1,.65-13.42,5,5,0,0,1,3.34-4.46,2.75,2.75,0,0,1,2.47.06,2.14,2.14,0,0,1,.93,2.11Z"/><path class="cls-6" d="M430.76,331.45c-.16,3-1.26,5-3.33,6-1.91.92-2.87.2-2.87-2.12q0-.67-.1-2.41l-.1-2.91a32.42,32.42,0,0,0-8.5,7,30.48,30.48,0,0,0-5,9.06c0,7.69,0,11.54.07,19.24a5,5,0,0,1-3.36,5c-2,.83-3,0-3-2.32,0-9.87,0-14.81,0-24.68q0-1.16.09-3.52t.09-3.52a4.7,4.7,0,0,1,3-4.78c2.22-.92,3.34.54,3.36,4.42,4.34-6.18,9.12-10.48,14.34-12.94,1.81-.85,3.15-.79,4,.21s1.33,2.94,1.33,5.82Q430.79,330.8,430.76,331.45Z"/><path class="cls-7" d="M287.52,120.72c.81-.58,21.69-16.5,23.17-17.62L384.8,47.15a29.28,29.28,0,0,0,4.4-3.6c3.18-3.58,3.5-7.62.63-11.44s-6.92-4.46-11.2-2.47A27.61,27.61,0,0,0,374,32.89C343.34,56,312.76,79.14,282,102.08c-2.48,1.85-106.45,83.82-129.62,102.54-1.23,1-3,1.38-4.51,1.92a16.13,16.13,0,0,1-2.25.24c-5.33,1-10.31,6.17-10.16,10.84.13,4.07,2.26,6.67,6.39,7.57,5.1,1.11,10.65-1.82,13.34-6.48a23.77,23.77,0,0,1,6.33-7.48q44.56-31.68,89.39-63C252.34,147.24,282.52,124.29,287.52,120.72Z"/><path class="cls-7" d="M469.56,32.06c-3.18-4.2-8.47-4.54-13.63-.86-.93.66-1.82,1.37-2.73,2.06Q402,71.85,350.8,110.36c-1.91,1.43-53.7,41.57-55.07,42.68q-31.16,25.33-62.41,50.55c-1.91,1.53-4.62,2.06-7,3a6.22,6.22,0,0,1-1.12.18c-5.38,1.09-10.48,6.1-9.72,11a12,12,0,0,0,5.28,7.6c4.18,2.35,11.23-.63,13.28-5.8,1.93-4.88,5.57-7.39,9.43-10.09q39.44-27.57,78.9-55.11c1.56-1.08,27.6-20.88,31.9-23.89.89-.62,52-39.38,69.74-52.74C438.29,67,452.57,56.25,466.77,45.43,471.79,41.6,472.77,36.3,469.56,32.06Z"/></svg>